<mxfile host="www.draw.io" modified="2019-10-26T07:30:51.979Z" agent="Mozilla/5.0 (X11; Ubuntu; Linux x86_64; rv:70.0) Gecko/20100101 Firefox/70.0" etag="wkEgZfw7dpaCBmucXbs7" version="12.1.7" type="github" pages="1">
  <diagram id="79MgN3PWgTG3y4Pd9pTq" name="Page-1">
    <mxGraphModel dx="445" dy="450" grid="1" gridSize="10" guides="1" tooltips="1" connect="1" arrows="1" fold="1" page="1" pageScale="1" pageWidth="850" pageHeight="1100" math="0" shadow="0">
      <root>
        <mxCell id="0"/>
        <mxCell id="1" parent="0"/>
        <mxCell id="kL8AGgguKoy8P9ie4XKG-4" style="edgeStyle=orthogonalEdgeStyle;curved=1;rounded=0;orthogonalLoop=1;jettySize=auto;html=1;entryX=0.5;entryY=0;entryDx=0;entryDy=0;strokeColor=#FF3333;" parent="1" source="kL8AGgguKoy8P9ie4XKG-1" target="kL8AGgguKoy8P9ie4XKG-2" edge="1">
          <mxGeometry relative="1" as="geometry">
            <Array as="points">
              <mxPoint x="120" y="150"/>
            </Array>
          </mxGeometry>
        </mxCell>
        <mxCell id="kL8AGgguKoy8P9ie4XKG-1" value="&#39;calendar.SUNDAY&#39;" style="ellipse;whiteSpace=wrap;html=1;aspect=fixed;" parent="1" vertex="1">
          <mxGeometry x="210" y="40" width="120" height="120" as="geometry"/>
        </mxCell>
        <mxCell id="kL8AGgguKoy8P9ie4XKG-8" style="edgeStyle=orthogonalEdgeStyle;curved=1;rounded=0;orthogonalLoop=1;jettySize=auto;html=1;entryX=0;entryY=0.5;entryDx=0;entryDy=0;strokeColor=#FF3333;" parent="1" source="kL8AGgguKoy8P9ie4XKG-2" target="kL8AGgguKoy8P9ie4XKG-3" edge="1">
          <mxGeometry relative="1" as="geometry"/>
        </mxCell>
        <mxCell id="kL8AGgguKoy8P9ie4XKG-2" value="设置周日为每周的第一天" style="ellipse;whiteSpace=wrap;html=1;aspect=fixed;" parent="1" vertex="1">
          <mxGeometry x="80" y="250" width="80" height="80" as="geometry"/>
        </mxCell>
        <mxCell id="kL8AGgguKoy8P9ie4XKG-3" value="&lt;div&gt;查看每周的第一天是周几&lt;/div&gt;&lt;div&gt;(返回0-6,6代表周日)&lt;br&gt;&lt;/div&gt;" style="ellipse;whiteSpace=wrap;html=1;aspect=fixed;" parent="1" vertex="1">
          <mxGeometry x="360" y="250" width="80" height="80" as="geometry"/>
        </mxCell>
        <mxCell id="kL8AGgguKoy8P9ie4XKG-7" value="&lt;code class=&quot;descclassname&quot;&gt;calendar.&lt;/code&gt;&lt;code class=&quot;descname&quot;&gt;setfirstweekday&lt;/code&gt;&lt;span class=&quot;sig-paren&quot;&gt;(&lt;/span&gt;&lt;em&gt;&lt;/em&gt;&lt;span class=&quot;sig-paren&quot;&gt;)&lt;/span&gt;" style="text;html=1;strokeColor=none;fillColor=none;align=center;verticalAlign=middle;whiteSpace=wrap;rounded=0;" parent="1" vertex="1">
          <mxGeometry x="40" y="140" width="100" height="20" as="geometry"/>
        </mxCell>
        <mxCell id="kL8AGgguKoy8P9ie4XKG-9" value="&lt;code class=&quot;descclassname&quot;&gt;calendar.&lt;/code&gt;&lt;code class=&quot;descname&quot;&gt;firstweekday&lt;/code&gt;&lt;span class=&quot;sig-paren&quot;&gt;(&lt;/span&gt;&lt;span class=&quot;sig-paren&quot;&gt;)&lt;/span&gt;" style="text;html=1;strokeColor=none;fillColor=none;align=center;verticalAlign=middle;whiteSpace=wrap;rounded=0;" parent="1" vertex="1">
          <mxGeometry x="230" y="270" width="40" height="20" as="geometry"/>
        </mxCell>
        <mxCell id="kL8AGgguKoy8P9ie4XKG-12" style="edgeStyle=orthogonalEdgeStyle;curved=1;rounded=0;orthogonalLoop=1;jettySize=auto;html=1;entryX=0.613;entryY=0.013;entryDx=0;entryDy=0;entryPerimeter=0;strokeColor=#FF3333;" parent="1" source="kL8AGgguKoy8P9ie4XKG-10" target="kL8AGgguKoy8P9ie4XKG-11" edge="1">
          <mxGeometry relative="1" as="geometry"/>
        </mxCell>
        <mxCell id="kL8AGgguKoy8P9ie4XKG-10" value="2019" style="ellipse;whiteSpace=wrap;html=1;aspect=fixed;" parent="1" vertex="1">
          <mxGeometry x="230" y="360" width="80" height="80" as="geometry"/>
        </mxCell>
        <mxCell id="kL8AGgguKoy8P9ie4XKG-11" value="&lt;div&gt;False&lt;/div&gt;&lt;div&gt;(判断是否为闰年,是返回True)&lt;br&gt;&lt;/div&gt;" style="ellipse;whiteSpace=wrap;html=1;aspect=fixed;" parent="1" vertex="1">
          <mxGeometry x="80" y="500" width="80" height="80" as="geometry"/>
        </mxCell>
        <mxCell id="kL8AGgguKoy8P9ie4XKG-13" value="calendar.isleap()" style="text;html=1;strokeColor=none;fillColor=none;align=center;verticalAlign=middle;whiteSpace=wrap;rounded=0;" parent="1" vertex="1">
          <mxGeometry x="90" y="400" width="40" height="20" as="geometry"/>
        </mxCell>
        <mxCell id="kL8AGgguKoy8P9ie4XKG-16" style="edgeStyle=orthogonalEdgeStyle;curved=1;rounded=0;orthogonalLoop=1;jettySize=auto;html=1;strokeColor=#FF3333;" parent="1" source="kL8AGgguKoy8P9ie4XKG-14" target="kL8AGgguKoy8P9ie4XKG-15" edge="1">
          <mxGeometry relative="1" as="geometry"/>
        </mxCell>
        <mxCell id="kL8AGgguKoy8P9ie4XKG-14" value="2019,10,26" style="ellipse;whiteSpace=wrap;html=1;aspect=fixed;" parent="1" vertex="1">
          <mxGeometry x="200" y="610" width="80" height="80" as="geometry"/>
        </mxCell>
        <mxCell id="kL8AGgguKoy8P9ie4XKG-15" value="&lt;div&gt;5&lt;/div&gt;&lt;div&gt;(返回某一天是周几,用0-6代表周一到周日)&lt;br&gt;&lt;/div&gt;" style="ellipse;whiteSpace=wrap;html=1;aspect=fixed;" parent="1" vertex="1">
          <mxGeometry x="80" y="770" width="80" height="80" as="geometry"/>
        </mxCell>
        <mxCell id="kL8AGgguKoy8P9ie4XKG-17" value="calendar.weekday()" style="text;html=1;strokeColor=none;fillColor=none;align=center;verticalAlign=middle;whiteSpace=wrap;rounded=0;" parent="1" vertex="1">
          <mxGeometry x="60" y="665" width="40" height="20" as="geometry"/>
        </mxCell>
        <mxCell id="kL8AGgguKoy8P9ie4XKG-20" style="edgeStyle=orthogonalEdgeStyle;curved=1;rounded=0;orthogonalLoop=1;jettySize=auto;html=1;entryX=0.5;entryY=0;entryDx=0;entryDy=0;strokeColor=#FF3333;" parent="1" source="kL8AGgguKoy8P9ie4XKG-18" target="kL8AGgguKoy8P9ie4XKG-19" edge="1">
          <mxGeometry relative="1" as="geometry"/>
        </mxCell>
        <mxCell id="kL8AGgguKoy8P9ie4XKG-18" value="2" style="ellipse;whiteSpace=wrap;html=1;aspect=fixed;" parent="1" vertex="1">
          <mxGeometry x="200" y="880" width="80" height="80" as="geometry"/>
        </mxCell>
        <mxCell id="kL8AGgguKoy8P9ie4XKG-19" value="&lt;div&gt;&#39;Mo Tu We Th Fr Sa Su&#39;&lt;/div&gt;&lt;div&gt;(返回星期的头2个字母)&lt;/div&gt;&lt;div&gt;(最多只能返回3个字母)&lt;br&gt;&lt;/div&gt;" style="ellipse;whiteSpace=wrap;html=1;aspect=fixed;" parent="1" vertex="1">
          <mxGeometry x="80" y="1040" width="140" height="140" as="geometry"/>
        </mxCell>
        <mxCell id="kL8AGgguKoy8P9ie4XKG-21" value="&lt;code class=&quot;descclassname&quot;&gt;calendar.&lt;/code&gt;&lt;code class=&quot;descname&quot;&gt;weekheader&lt;/code&gt;&lt;span class=&quot;sig-paren&quot;&gt;(&lt;/span&gt;&lt;em&gt;&lt;/em&gt;&lt;span class=&quot;sig-paren&quot;&gt;)&lt;/span&gt;" style="text;html=1;strokeColor=none;fillColor=none;align=center;verticalAlign=middle;whiteSpace=wrap;rounded=0;" parent="1" vertex="1">
          <mxGeometry x="130" y="970" width="40" height="20" as="geometry"/>
        </mxCell>
        <mxCell id="kL8AGgguKoy8P9ie4XKG-24" style="edgeStyle=orthogonalEdgeStyle;curved=1;rounded=0;orthogonalLoop=1;jettySize=auto;html=1;strokeColor=#FF3333;" parent="1" source="kL8AGgguKoy8P9ie4XKG-22" target="kL8AGgguKoy8P9ie4XKG-23" edge="1">
          <mxGeometry relative="1" as="geometry"/>
        </mxCell>
        <mxCell id="kL8AGgguKoy8P9ie4XKG-22" value="2019,10" style="ellipse;whiteSpace=wrap;html=1;aspect=fixed;" parent="1" vertex="1">
          <mxGeometry x="200" y="1220" width="80" height="80" as="geometry"/>
        </mxCell>
        <mxCell id="kL8AGgguKoy8P9ie4XKG-23" value="&lt;img src=&quot;data:image/png;base64,iVBORw0KGgoAAAANSUhEUgAAANUAAACBCAYAAABXX/9iAAAABHNCSVQICAgIfAhkiAAAIABJREFUeF7tXQlcTdkf/773WlDSolRCyDL+pAZjaCYZMjEYg+xb2RIlGswMgwljy2DsjJ0sQ8bYaTAlW6UoEWVt3zeh5b3/ea2v5b173us+arr38/H56N5zft/f+Z7zu+fe+873/HjXrl0TuQ6YDO7gGOAYYIcBPjtmOCscAxwDJQxwQUU7Fnga+N94dyyY2hkqtHW4cnWSgboTVBpNYW5ngw6NeYp1NK8RLMZPxXAbEwgUs8DVqiMM1OygUm+O3ku24tiT+whIvY/LN7fCZVBzqCnQOYJPxmHFkUX42rRmN5m+aTxoWdpj3om/cTH2IYKSg3D++gZMttFHuRaSm0GnGWtw8FEw4TAEF6+vxdhu2qjq1qJuNhgewaG4sKZr5dlYow0Gee7H6VdhCEwhWFc9Mb6nTnkseuf/0yVr7gjjaeOLdQfgOVkXdz2cMWWAC7bfNsCIgwfw49dVD4r/dE9VbJygBQYud0HXjEvYPtUJLo4bcEvFBi5eHhhgUBIyfBiNX4stq77AG6+lcBu1BGcyreDuvQaDTcq6XqDXAXaLNuPojbUY1Fq9csCRvrBZvw+/2PNxxW0iJgyYh6Mxn8LVexNGtObm7Ypdw09LS6t4rkb8zW/xHaaM0cWdxbOx/pA/7t/2hff3LvjdTw8D5w1F09IxoYomvR2x5O9zuBwXjnvpYbjx9AI2zepQ9Jim2h0/RDxBsO80tFBvCQffJ3iQE0X+PcW/W62hWtJaFUP0nL8RXo9DyB09mNzR12NKH8NKj3oqnzpiS9Bd3E1/iH+D92PB6DaoJ8kYXwcWTiuw444f/FMewu/hcayY1QXaElMDT9sS9qvXY+fNf3Dl9QMEZkYgIN4f251b0d/5C17gyJCvMGbyFvx1zg83/z6IVQtOIl6jMyw6FL/1qbTHUFdr4PRy/LD8NPwvn8bWSSvwD88a4ye2K26bAGbTPTC7dw5OO8yBV5Swcv83tMa3Q/TwcP0ibPUOQvidqzgwYxkuvO2KUROKea5cq86eUdHR0amBjedBs8fn6MALxW9XklDazcIE+J4NxYJfP4dlo72ITuNBf+hq7N/7NYRXD2Kf23o8T3gLNYMW0HgeXVQv7z529rfDCcsp2LzbCrcnT8X+sALSZhEK0uORX9h6TXRbsR8bHfJx6ZcF2PSYjzZjXDHzxH7ofjsMa3yzSzniqebg0c5fsC8qD82+mwmXHXuhmTkQi8+lE4v10WnhfmyflovTS3/GtpBs6FpPwlyPnViRPQgu+2ILfeI16Y7vpvcF9v+Ktb+8QHJWAVS1GoP3rNhnyh4R5eVD3JKigwcN4ybQyH+FFy+LzvL0LWHRWoj7629By2EXTvxcH3sHuME/UIjen3eGDu8RkkUFiFhpjwG/iiBS6QTXFZXBeRqa0FQVISs1g7Sx+HjzEGEPRRjQsQ00EIrMytXq7Jka+iGLD11jfQjeP0d8suSdU4i06FjkCszQxIBMVW8s4bBsIBr+uwT2w48gtnSE+Ut06DukPnuGDN0M5InykPEyCs8jyoaiuCDPaCAmO7bA09UDsWRLZOFAvfXvU6i1PYup7t9gr98xJBVbzLtzFJt3nMN78d9XI6Da/iJcnL/B5guHkdj4G0yf1RQ3Z9ti1dHUogEYRMp08cOKUX1hcOAA4kub8x5Pz57A5St5rAw+1dZDsXhFLyRsc8Cp50UgfAMD6PGyEBL/HppfNIOuXj0Ya+fgZmwOeF0MoEue3JLFdxURCSgZXoiSQhAcycN4B0d0u7IFAXH5qN/UFIZapA/S1aAqnoVlGZBh+794qYYGFaGaV9WrdEkXFA0CvokFOjUtwP01FxFXPk7k6iuV/3VCO7VYnPF9UXbnz3+Bu74xcB7dCa1VSVAVTWnl7QqjEXwrBoKxn6AVYTK1kyU6aGhBZ7s/AraVFeWpqIL/3Bj6ZAyWBZVcLsosXL/jOKw6uQCt/X7C9F8C8aZS6TyEL7dH/90CpETnofv4SgVkn8gPx76pK2C6ey52RjpBSLjgvctCjjof708mI5sLqHL81dCgEiI1NhEF6oYwbExGYkzJ7Z0PHRMjqBUkITGRnNMWFj5OCYU0vSr7biw9hGXZ5pHYJzVL7vTkv7yCaJxymIaD4ZIzLCmSmw5yg2f5II/JXadjg7czdE7NwWR3HyRIYAgTE5Eiagh9wwbErwwkRBN48tFB37gBRIlJSJXjRpQTchDzuxyBh6ERtNXeIaP+YGy+PRe5t8PAzlzLMjUf0VwN/fonQvatO3gk6ghrW4lPxPwmsB5oDlHIHYRkiCCMCUN4nACdh9jCkOkj1Lt3eE9+wNVsVLnJ+Q9D8TjXGF2tTcs+TKiY4jPrpsgLDQN5far6UG2J7r1ImQehiCRl8sMeEDtGMDevh9gI8WNm2b8Xz1OKHhmrtqTQWb7hACw+MhN6f82G05zyASU2KEoKRkgUH+a2PaFVfNfgafdEzy58vLgdgjRZ94sqPcpHdvxrRCdowtZjCsxTL+DIyYSyd94q69S9kzV0piKzzwtv7D46Ees9NsAtdxOuRJKvVCNnw9U6DedHn0S0eCLIDcTB5f+g3/al2H3SDIcO38azpFwIGhqgKXl5Pnmm6P1I3K0FLx8hMksPfd1dEcS/iVSVJmhV7xGOnYpAQdwZ7N7jgK3zf4fH+004L/5QMdoFUzu+xMlvzyFJPPiKByXfxBxf9k5GZj0TdHOYiUkdXuAoKZMsLhN/Bju3jceOuTuxXXsXjl+KQGp+fTQ2M0LG+cO48ar87FW94aYK89nu6MPzwbJ9MWjUvi0aFRsUZcfj+atM8pj2GN6b/DDy90VY+VSAQ3eAzrN+RF/4wuMAaXeJA/X00LylHtRUmkNXnQcV3WYw65CBd2kxeBmXU/i6VM/IDGatmqK5RQ/YOoyEjVEU9o5Zjmupckdm9ZpdC2rzavSC2nqmsF34I6aN6YFWeuSdOOIWzqxaiW2nXkjc9dVgbDsJ092G4osuLaCnwcPbpJd4eHgF3Bf7gkxoxYcAxoMXYInHd7Bs2Qi87Bg83L0YLkv8kCUuI/6kPm8hXB17oU1jEVIe/ouTS1fiD5+4osFHHpuslm6E28j/obmhFnkEzULMvas4scITB68nlA1Q8kndfLIbZky1Rec2jVFfmIWEJ3dxYNoseIUWDWN+OycywKfgqX0PLFH0QwXfBOMu+WC+VemPAqXDLffyD+j73Z9IL7wZaKOT00IscOuH9gZAyv0rODB/Obzuir9WFh0CS3ec+NcZrcvdYoVI+mMS7Fz9yeOdAB2XXcDe6TpIjnqE4Cvn8Oc2bwTHSZvCa8HIV6KLNTuolNhwzjTHgLIYqPyCoSwkzi7HQB1hgAuqOtLRXDM/HANcUH04rjmkOsIAF1R1pKO5Zn44Brig+nBcc0h1hAEuqD50R/M00XHSAvw03bKyZulD+8LhKYUBLqiUQqsMozwtdB7jgO+sjSvJSmTU4i7VIgb4cXFxxe5qYdAJoke644q2xUt++O2dcTTjEXY46lcWrlWjkWpDfkfAG7GmqfK/+4kb0Ee9GsbLVSUivRleCHy9ClYV5MJqdmtxI+0QRhqzd1/5cO0SN5KPJtMPI6gSh5G4s/9rhdTRMllXb4avlmzDkYh7CCBj4taLqzh8fAG+asYef6X4HxJLZqMVu6gyZswYdKrfChAYwrgpWaDaui9s2m7Bk0dA82/6oqVQiLgWhqQLk8pWDSiGVVor7+pKjOq6uXAhuuZAssToJx6291+CaxlkvZowE/G51QQorS7C2zdvIVJVKZInSJol51REb5Hzhr2lQ1Ttkr5yV7FGv/eFZ++VuFnKGVk4nBHH8iJXAT6ZvwNrZopwyeMHrLtD1vvptkLnLxsiPY09/ooI+JBYilHOVIvv4uJS3JYmMNR/Av9/tWAzsCX4AhPYDNDB3ctPoNusicRCUzqFrCxgUWYcoh49QWT4UzyLfUMWeecg8fFT8vcTRD2Oxxvx+hlBOzjdfox/frcqU+eq94dn6mPsm2lCqZAlQZVF7KuoVXp/4ampQlDwFm8LhVHkoFDsymqT+BpVu4qNqFrPw8kXoQhMe4B/7u7ALDsjxR4HRdmIK+Sy5N9TRMVkly5BYkVlzNdH556tIPLZiuWbLyMw4D7uXTqFvYsO4F6ZfhM8/f5YcucG/JIjyILnUFwLPohFEz5BA3luJDRYrIwNpt5U/Drf3t6+qHa9xtDTfIvAI/9Ac8BXMG3ZB710r+Kc3xuoNtYDWVJHjmKF7PdmeLZpAVztfyLy6/aYShSy7taainuhxJrCrGzkkJBSIeva+NrN0d68GTRJW1RUVSHKykR24Y22WLG7sB1e7PwZM/tNxJI/EtFZrNidaEwZwPI1Qhjrjz2znOFsvxDHXnWA4/41GN6C/UepEpWxZsAfWDtlOqbZjccsIqnf5yOHyliYjmePEyHoPgjftK8vtaGi9HBcWL0IcwYMw5h+M7HJTwvfbNoEp88qr0+UaoQSS2r9GnChdAklnwSODj8Pb2+fxfUfF2KUcx60L3qSO1Er8IjkXpv0d7oBhUK2hi1aFmWSwIE+VIlQ0PyH/djn/B5/fDkQh9RUIEpPQyYJKp6BPIpddnqtIPImzp31K1wYHPhYB93DfkAvG20c31+sGKaFIbP32uQnZaXJyv21n47D4ZeSj2XVVRm/Q8ASZ6zRXos5N65i6PmTOLH7KM7/G413kn7mvcRd75elZ8JD1dHNfhMsuhuBf+cVpUSEEouWn49QrjSoxIGjxStA3pswXDrbEAdm83G43wPkmOWB11CrcKaiUsiy9j7EDhvCzAxkCck7laYl+vV/A78raugzrCNOvCRBlZZeGFQqH0mxW9JCYeIrxGQTuYmBDvkgJGdQ5frhN8l3KvKemBzL9nuO+NE2DEcdvsHZ1j3Qb/xIjDp0ETNCtmHBhK24VyzM4ut3w+ilszCkd3sY6fDxJvEN6tfnIa6+fJvK0WCxMzqUY6VsptLSIo9FecjLJ9Lr36ZgrDcQ+yAP+c3FQaWJBsVPJtIfj9meooQoEA94FSb1oWxiRCmpRP6hCg2r/rDOuoDvV9XDip0DYLFXFcKUZBS+Z5NGfVjFbkWfC1BAFLt8vnR2K9Yo/bvknark3VBqQTYuCJEd5Q/vpf74e893WPPvKnh8fxNDFgYjn98M9vv+wNyWt7BtkSv8IzLAb/wlnL3c0VghaBlYZM5jY2wo5BZFpcpBRSQyonev8fh+UW21vAKIyG464pmqSCE7rEghe7dYAEijkKVwpFIRYSpSyKYvmq1Nocf3VXhvB1FWKtLzGqDryK+QfXYqngSr4lreFnxjlYbshBSIJ9Yixe6wIsXuqVDWFbqV2vYfOJH/+iZuky0DvmzTHOogQaXaDp271EPkhnXY4/206FFPTQdx70QKBlUZSZWwWBobyuqG0qBSb6gBfp54x6EKUGTmKlAjQUV+OxLRKGTZ8lSUhttnA5HrOR0//5iOw77kM65OZzQhM6YcWyuQiElCQnI7jO0VhZ0/RxVuWuJzJgcT5rbB89VF4kLRB1XsskXQB7TDN0DfxS4we+mLe+HxyCrQRHObcZjQMx/hS0LxVuxKfiQeheXBdoQTRj84guCYHPAb/Q9NiJJYroMGi62xIZdj9IVLg6qBJtkcJC8Z+RWCSpRPHk3Izm4NxFNV5hsELJyI2elEIeu6Gr8XK2T32BOFrMTeePTwskoKEbtnPr43WIrZjiuw+Qd1CHMykBRxF5cjyWdyWVUlrxXEISZWAP7bS2RHsaJwfPrXJbyaNx2Jr0v2V8hB8NLxmPJarNidgp8nSSh2/b1okf675XjqyC/QQFfnJRjbUh+aKrlIfx4K/2XTsXHLs6JZiWzueXTybGj9OhNjt+3BHG01FORkIj2WlHtWeX8nqWTRYBFEVsaGVCeqd4Hn6+srmvn1pOpZ4WpzDHAMlDLA/g8jHLkcA3WcAS6o6vgA4JrPPgNcULHPKWexjjPAs7S0FOU/JitZuYNjgGOAFQb4QrIKnTs4BjgG2GOAv2HDBvascZY4BjgGlLIAm6OVY6BOM1ArPlTIzEXLSvdR5s9lBUsFxnYu+PXSFVxPekxy9Qbg7BVPTLASL6ZV7qHeYRw2RT3BPX9ntKreksqqHRW0xbRbERUU3eHYOEqj6vLVPstDAzMbjPPcgv33buJG7F6MMFI2i8xOl66oYC764UuIc9HaznAmidRsYUqUbglXlORDSf7c+GMkf+4DJApM0We+O8mfq44EC2ecTaRev0HhoBD5ZNV29rVd8FjzGu+02qCPmxvmevEQ3ckdV5WUklDFbATWnCZbJQjf069GoWhNuSJ8klVFswBhqx2w5M/kYhwh3kQXLmRi+VBHqwmrsGF5J0SfOI6Tiw/hZXQ8XteAhAk1OKhKctE+wzGSi1b/19/Qh+VuKTVXnD/3WGm6Tz8EpJjC6nz/wvy5ZxPZ3IhfiMRT6/BrKfgtBL43h92RdmjbTICrD+Va2UjFCE/rM7gemgOtndPxq/EmrPuMqpr8hXgNodWoAPEPQ/A0PEf++nLUUP/MFWuW6uCY3SAcDldG0MrhTIWiNfjxrzgXbZ/52HflNd6zOVlUwRdT/twqqrBwSoAGzbtjtGNPCB5fw80o9gMKZIGq7UZP2IZ7YP66UOQok0eSkkdP4y1yVfTRWEtVeY+zvEbo7Toaprk6+PrgP/CNv4d/gvZj4aQOharuj33U4JmKUMOQi1ZZ5FWVP5dtLJ72d9jwZDVsNPgQpdzGxiHb8aCcjJYNRD4MRizFgq5+WGx9EUlCAUzZMCvFBr9xfRS8foduv52HD0mFmvnYH3+tWIYt3pKpj6RUlue0aid89oUGku5egtc2fzxP5qPZYDcs/H03NFL7Y+HfZWmC5DHLVtkaPFOx1UT57Ijz53qeX4q2JH/u7Crz58pnT1ppUaYPVtoMhcOwH7En0ATOZ/bAobN8CllptkvO83S/wmwPCwQsXoeb8qdNZDJf6brwmRfcLKzRx7gTerQdhbW+ehi+Zy/ce7P7oYKn0QQGjYR4eeEYLl27j4jQYPis8sCh+zroPdKKaCo+7sEFVSn/4vy5Tth0fj5MLpL8udPPIIbNV6mK/UySwcWHh+HexT/x+5gFOJlpibGOXcp2jqpYXoG/NfrZo1/Txui3hyT2TntEdm4KJR9iDKHa2Q1/ki9lwwyV9awkxNuYEJyZvwze0cboO9SC1XaJiMYvX8SHlh5J3lfCC5H4xJFtBNTIXiuaH3lU1+zHPwUGkqJVyvLnumLanGvkUUlRSwrUEwnJfodETi9g9zt3zvklGP7pGokfI0lGxAUHsNT8DNzG7UFIYd5VJR5kewDx3o6sH2+jEPkc+NyqC3TXPStKDavaCmZmAmQHvCraIoF1UHqDNTuoKHLR0jdVVkmK/LmyqstzjexrZzVzBJrGPsSLxLdk/4+msBg7A8OaxsD7RDCrm2AKM+PxstwnehU0Ts+H6H0aYp7GEQWvPI4zlVVDJ4dZ+DT3AZ68zoJQ0wSfjneCvUks/vIOYbVdILmM/94dhLGr5mCJewp2XE6HyZifMLLlMxyfcfujb4dQo4NK8MkkbJTMRdvSE8fHSOaiZepoyusk633HrsZQNW4BjxuDy1Uqlz+X0pzMYrwGaNjCAkOmT0LrZo0geJuC6Ps3sWvUeuy/LodCVibIR7jII79RGbclcvqRcGqhA7XcNMSSdu0Z/Rv2XmO7XQV4td0VrvUWwm3aOuxbpEo2pLmN4xPcsOUu61975CaTy/krN2VcBY4B2Qx85Fc62c5xVzkGaiMDXFDVxl7jfK7RDHBBVaO7h3OuNjLABVVt7DXO5xrNABdUNbp7OOdqIwNcUNXGXuN8rtEMcEFVo7uHc642MiBfUKl2xw8RT6rM1RsSvhCWcuT2oiKrXgv0/WUHjkc+QFA6ycwXtA8/jm9fnICOygJ9IY02GOS5H6dfhSEwJQjnr3pifE8dhfcbkKlWJtKFTjPW4OCjYASkhuDi9bUY201bYamETKxiBmjK0JAl3Q776mnpWB9PPU3DkXwrKvLDcGDECJyX2HSep/sFXHbPhOFVsgSfbP7P3lEfXT32YPWIWOyd64CfI/loNWIOfti8CypxX2OZD4siOJ42bNbvwy9fP8Met4m4GtMIXWctgqv3JuRZTcRROXROzGplktx7/FpsWdUR4Z5L4XYHsJi1AO7ea5Ddwwmno+kXHTJjkSyvLKmnGe2wqJ5mxCJ7qX8M9TTt2JYvqERvyNKTEMSWWOfp4qtdm2GRcADTfryOdDbXZ6q0gZVtUyQcnYft3vcgjteIR57435DD6PG5KQQ+4fJl/5DFSENrfDtEDw9/HYOtJBOgeFiHPxTBLHQbRk3ogD9JZgu6ZXIUamWV9hjqag2cnosflp8v5OxmYD5MH6zD+IntcHbFI/awSBZhs+kemN27uuppCjusqacpsEgPfWj1tKzhU/GafI9/FWrXt3LG3OF8XPllK4KzKpqu5t8FCXj9Kg8GvW3RUatoqbNqqy7oaJCGh4GvKAcenQ88kn9LU1WErNSMsv0b3jxEGAksk45t5NDnMKuVefqWsGgtxP1Lt6DlsAs+zw9hTJM78A8UwvTzztChXtXNjCVOOhSx0h4Dqq2eprPDjnqaDqusZz+AeppuGJWWUjyo+Eb4Zv4I6Af+ge1nlaC0FCXgzLzFuKw2DjsDjmLVhrXYdW4yROtd4HlJIiW6nA2uqrgoKQTBkTxYOjiim5E6ebchHdXUFIZahB5VNahSD3RinUGtzDcwgB4vC0nx76HZrBl09UxgrJ2DpNgcknvYALryqD8YsArbSlOmKlIqnpPTTpl62hOnntM/0srjs1g9vTHxEW49Oow5nz3DjhnKUE9XJIL5b4WDit/BHiOtc3F98wm8ons2YvamXAmy/ZShKZo2jMeNfafxIEUEEUk21n74cPRoLs/Io4DND8e+qSvgpzUeOyNDEZTxCP5B2zDSnI/3ScnIZvOxttQdkgZ2uT36dxiC9beUqYakaD/LRf5L6mlFqFEwqAToMGIQWqdext+XJR6ZFPFAWp163TFz5xSobHPCvJVe8Fo2H47dHHEKQ/HTIhs0kFZPwfM5IQcxv0s3fNG6DwZ3soK19VZEinIRfjuMVS2QMDERKaKG0DckSfYKspAQnY58IpvQN24AUWISUpVyg1KQFLmr1Qz1tNxus1xBsaBSaYde/Zsh64oPglj8CCfZNr6uGVo1ycXrJ7Gl70+izFDcC3sHDRMjJUmm85Ed/xrRCZqw9ZgC89QLOHKyJNsiO8yLkoIREsWHuW1PFL8qgqfdEz278PHidgg+wFYS7DSkCitl6unZcJrjgwRWvwZXASh5SknqaQbUKi/L9/Wv2AS/SRdYmgnxcHOI0lSWwsQgBD5Wh8PipRiRsx+BMYCB1QQ4DVBBpGcASI5tVo96RmYwa9UUzS16wNZhJGyMorB3zHJck3dzRia1MlGtem/yw8jfF2HlUwEOkU/qnWf9iL7whceBCPk+wDBhiRmiKUPDJKMdFtXTTFgM6mma5iizjEIiRdVev+DC371wya4v1t5S3u1IrWVfTFvpim9t2kJfQ4jsmAjc9doCz5U+iGX1NYTs3bDsAvZO10Fy1CMEXzmHP7d5IzhOfhCBpTtOSKqVC3uvglqZ/C7WyWkhFrj1Q3sDIOX+FRyYvxxed+X74EODRVOGZoAx2uGbYNwlH8y3qrwCQF71NCMW+U3MbvUiTLCzKKeePreeqKcvRiOXpkFKLKNQUCnRH840x0CtZ0Cxd6pa32yuARwDymOACyrlcctZrqMMcEFVRzuea7byGOCCSnnccpbrKANcUNXRjuearTwGuKBSHrec5TrKABdUdbTjuWYrj4Eqg0q64rK8I2zkkJWJxXIOWZlYhU1jL4esVCwlqKelYombxLJ6WiYWK+ppSgUxy+ppNkOs3DIlZsVlGXR1c8hSYbGUQ5YKC+zkkGXEYlE9zYgF9tTTjFhsqaepFMTsqafZDKYSWxJBRaO4LKpW/RyylFis5JClw2InhywFFmvqaQos1tTTFFhsqadpFMQM6unTRD39MQ+Jxz9KxSUrOWQpsVjJIUuBxVoOWQqsCr2tuHqaAos19TQzFnvqaaKrLE1oLiaLBw3jJtDIf4UXL4t0MUzq6Y8ZUGLs8u9UjOrOshyyy93FOWSr4T4jFnFOModsXCj+DdqNuUNNyYOanAcTVkkO2Qckh+z3MzDVdjJWegN9SQ7ZnwbJucsRE5ak69VVTzNhsameZsBiVT0twVFVCmIm9bSco4P14lV+qJCGwuWQlcaMYuc59bRs3pgVxDVTPS1XUHE5ZGUPAvmucupp6XzJVhAzqael2/0wV+QKqqIcsv0x7POBsC/89y2W/plMskXuh1uvn3C5lueQbSXOIVuyyUtJDtnnSsohy6mnpY5wJgUxk3paquEPdEFlzpw5ZVAMiktWc8gyYInAYg5ZJiw2c8gyYRWzzYp6mgGLVfU0A5Z4bxx21NMUCmIG9fQHih2pMLxJkyaJgo75FhZgVFxWMqOCbr9dx7buXhhBNkp5JsemJYxYPB30+GklZo6wRGuJHLLn1pMcsudfyyXjZ8QSt4vfGN3cxDlkbdDOsCiH7KklS7HlbHThRp60BxUWMcaGepoGiy31NDMWS+ppWgUxS+pp2n6VpxzP19dXNPPrSfLU4cpyDHAMyGBArncqGXa4SxwDHAPFDHBBxQ0FjgGWGeCCimVCOXMcA1xQcWOAY4BlBsS/yog61W/FslnOHMdA3WWAv55sQMgdHAMcA+wxwLewsGDPGmeJY4BjQHKVOqXispg0mQpQRmJpsGjKMAKRAjR22MohS4NV3mfF1dOUWKyopymxCptWXfU0BRaDeppmVCizTJlIkUpxyVIOWRosmjI0zFDZYSmHLBVWmdPVUk/TYrGhnqbFYkMVeWDMAAAHcElEQVQ9TYPFoJ6mGRbKLFMWVDSKS7ZyyNJg0ZShYYbKDks5ZKmwipyutnqaFosN9TQlFivqaRosBvU0zbBQZplyn9SZFJfs5ZBlVneKG83sDx018tmpXg5ZKixW1NOU/LCinqbAYk09TYFVodsVV0/TjR95S0nNT1WmuHQon7OVQQEqrwPi8lKxJIzRlKHBlmVHnEN2w5PVsNHgQ5RyGxuHVC+HbNVYZerpxdZi9bQApjSOM5SpGquCenq3AJmP/fHXimXY4v1CrkXJkvBVYpWop+8S9fQ2fzxP5qPZYDcsJOppjdT+WPi3fGmCSvCqxJJ0plQ9vVE5uacZeK/qcpU//jIrLqsypdg5GiyaMjToTHZEmT5YaTMUDsN+xJ5AEzif2QOHzmo0piuVkYalDPW0NCyxU8JnXnCzsEYf407o0XYU1vrqYfievXDvrVHJZ5oT0rB4Gk1g0EiIlxeO4dK1+4gIDYbPKg8cuq+D3iOtoAiaNCxJP5WvnqZhpXyZCkElW3Epv3lZNWiwaMrIwii5RmlHmIX48DDcu/gnfh+zACczLTHWsQsqpzGThSkbi131tGys8l4K8TYmBGfmL4N3tDH6DrVgtV2i/Dzki/jQ0mtEvv8VHwVxiIsVQq2xnpzpZGnb9QHU07K6Wsq1co9/ZYpLV0ybc616G7tIASw5TYNFU4YBpvCyQnYUzCHLhFWknl4j8VsG0SEtOICl5mfgNm4PQuRQTzNhVckNnwde6aivskSVJxmx3kYh8jnwuVg9ve4ZksWqxRL1dIB86mlGrBIPS9XTK5WWe7pKMhhOSgQVheJSbIxCAcqAKWYb5rPd0Yfng2X7YtCofVs0Kq4kyo7H81eZJKEnTRlmJCoshhyy9ElKKXzOjMfLTEm/VdA4PR+i92mIeRqHLGqhJwUWa+ppCizW1NMUWMX0saKephlCcpYpCyp+E3TsagxV4xbwuDG4nBnJnK2CTyZho2RO25aeOD6mQk5bJidosHh0/jBBgQqrARq2sMCQ6ZPK5ZDdNYrkkL3+hhGitAANlvgOzsZBg0XeZDSN28J2xEg4Sain94wm6ulrbLerAK+2u8K1nlg9vQ77FhWpp49PcMOWu+/oW0zTrmIOBWZmMOUn4tKTTLBFK72j0ktyOX+lc8Nd4RhQiIEqv/4pZImrxDHAMVDIABdU3EDgGGCZAS6oWCaUM8cxwAUVNwY4BlhmgAsqlgnlzHEMcEHFjQGOAZYZ4IKKZUI5cxwDEkFFobgU88VKDllKLFZyyFKqelnJIUuJVTzuqqee5gZvTWWgLKhKFJcZl7B9qhNcHDfglooNXLw8MMCgZLFYcQ7ZiQ3gO98BY6wdseaCGuw278LcPg3o20iDVZJD1p6PK24TMWHAPByN+RSu3psworWAHosseMqvr4bsa7vgMcoBLlM34Y7aV5jrtQi9tUrMlOSQ/QJvvJbCbdQSnMm0grv3Ggw2kWcyp8EqUk/bLdqMozfWYlBr9bIFqHK0iitacxmQT/nLVg5ZGnUnWzlkSVAlnlqHX0v74BYC35vD7kg7tG0mwNWHZLEdQw7ZsySHLN2SPAosttTTNXdM1XnPyt2GGVWrrOWQZVZ3splDtqyXq1b1MuWQ1VFgVTeZj9CgeXeMduwJweNruBlVEpbM+XPr/Kis5QTIp/wtziHb9ZgHdgZ8iqsXXsFw4JcQrZ8Jz0vZClNRlbqzJIfseAdHdLuyBQFx+ajf1BSGWuQ+kK4G1cJtQOkhZal6S3LIhsS/h+YXzaCrVw/G2jm4GZsDXhcD6JKnzWQ58unIwir0WAnqaXomuJLKZqDKFwbpikuy/ZShKZo2jMeNfafxIEUEUYEm2g8fjh7N5XnPKWuWVKz8cOybugJ+WuOxMzIUQRmP4B+0DSPN+XiflIxsOQKqcBxTqXrZySFLh6XsruXsfywGKsxUYsXldGzwdobOqTmY7O6DBMk7dL3umLlzClS2Dca8dVHkPcMLRzaewLxrB/HTIh/4Tf0HOdQtYcAidnJCDmJ+lyPwMDSCtto7ZNQfjM235yL3dhjoNU7FDhWreguVvddfoUHwgUJV76HZt5CfmIgUUUPoGzYAryADCdGkDvlQom/cAKLEJKTSvVCVtVwGltx+U/PJFawpDJSbqcoUl7PhNKdCQBGP+bpmaNUkF6+fxJa+uIsyQ3Ev7B00TIzkkkwzYZURlI/s+NeITtCErccUmKdewJGTCeTzQzWOCqpephyyaXLOiuU8U1BBXI3WcVU/MgPyKX8TgxD4WB0Oi5diRM5+BMYABlYT4DRABZGeAUimHul06k5WcsjSqHoZcshST1Q0WOIOZ0U9/ZFHDgcvlYEykSJlrlVWcshSYbGUQ5b8Jma3ehEm2FmUU/WeI4kZ9l+MRm4JNWzkkKXEYs6fK7W/uAu1gAFO+VsLOolzsXYxwD9x4kTt8pjzlmOghjPAJX2r4R3EuVf7GODb2dnVPq85jzkGajADfEdHxxrsHucax0DtY4BvZGRU+7zmPOYYqMEMVLlMqQb7y7nGMVDjGfg/eAhr1/ys/AoAAAAASUVORK5CYII=&quot; alt=&quot;&quot;&gt;" style="ellipse;whiteSpace=wrap;html=1;aspect=fixed;" parent="1" vertex="1">
          <mxGeometry x="100" y="1370" width="280" height="280" as="geometry"/>
        </mxCell>
        <mxCell id="kL8AGgguKoy8P9ie4XKG-25" value="calendar.prmonth()" style="text;html=1;strokeColor=none;fillColor=none;align=center;verticalAlign=middle;whiteSpace=wrap;rounded=0;" parent="1" vertex="1">
          <mxGeometry x="120" y="1300" width="40" height="20" as="geometry"/>
        </mxCell>
        <mxCell id="kL8AGgguKoy8P9ie4XKG-29" style="edgeStyle=orthogonalEdgeStyle;curved=1;rounded=0;orthogonalLoop=1;jettySize=auto;html=1;entryX=0.5;entryY=0;entryDx=0;entryDy=0;strokeColor=#FF3333;" parent="1" source="kL8AGgguKoy8P9ie4XKG-27" target="kL8AGgguKoy8P9ie4XKG-28" edge="1">
          <mxGeometry relative="1" as="geometry"/>
        </mxCell>
        <mxCell id="kL8AGgguKoy8P9ie4XKG-27" value="2019" style="ellipse;whiteSpace=wrap;html=1;aspect=fixed;" parent="1" vertex="1">
          <mxGeometry x="200" y="1690" width="80" height="80" as="geometry"/>
        </mxCell>
        <mxCell id="kL8AGgguKoy8P9ie4XKG-28" value="打印整年" style="ellipse;whiteSpace=wrap;html=1;aspect=fixed;" parent="1" vertex="1">
          <mxGeometry x="80" y="1870" width="80" height="80" as="geometry"/>
        </mxCell>
        <mxCell id="kL8AGgguKoy8P9ie4XKG-30" value="&lt;div&gt;calendar.prc&lt;/div&gt;&lt;div&gt;al()&lt;/div&gt;" style="text;html=1;strokeColor=none;fillColor=none;align=center;verticalAlign=middle;whiteSpace=wrap;rounded=0;" parent="1" vertex="1">
          <mxGeometry x="70" y="1740" width="40" height="20" as="geometry"/>
        </mxCell>
      </root>
    </mxGraphModel>
  </diagram>
</mxfile>
